<?xml version="1.0" encoding="utf-8"?>
<!-- Generator: Adobe Illustrator 21.0.0, SVG Export Plug-In . SVG Version: 6.00 Build 0)  -->
<svg version="1.1" id="图层_1" xmlns="http://www.w3.org/2000/svg" xmlns:xlink="http://www.w3.org/1999/xlink" x="0px" y="0px"
	 viewBox="0 0 14 14" style="enable-background:new 0 0 14 14;" xml:space="preserve">
<style type="text/css">
	.st0{fill:#235784;}
</style>
<title>home_download</title>
<desc>Created with Sketch.</desc>
<g id="App">
	<g id="Group-15" transform="translate(0.351562, -0.181641)">
		<g id="fire" transform="translate(0.498844, 1.000000)">
			<path id="home_download" class="st0" d="M6.1,13.2c-3.9,0-7-3.1-7-7s3.1-7,7-7s7,3.1,7,7S10,13.2,6.1,13.2z M7.7,7.9
				c0,0,2-5.3-3-7c0,0,1.6,2.2-0.9,5.2c-1.3,1.6-1.9,4.1,0.4,5.2c0.2,0.1,0.4,0.2,0.6,0.2C4.1,11,4.3,10.3,4.9,9.4
				c0.9-1.4,0.4-2.3,0.4-2.3c2.3,0.8,1.4,3.2,1.4,3.2c0.4-0.7,1.3-1,1.3-1c0.3,1,0,1.7-0.5,2.1c1.8-0.6,3.1-2.4,1.4-5.5
				C8.9,5.9,8.8,7,7.7,7.9z"/>
		</g>
	</g>
</g>
</svg>
