<?xml version="1.0" encoding="utf-8"?>
<!-- Generator: Adobe Illustrator 21.0.0, SVG Export Plug-In . SVG Version: 6.00 Build 0)  -->
<svg version="1.1" id="图层_1" xmlns="http://www.w3.org/2000/svg" xmlns:xlink="http://www.w3.org/1999/xlink" x="0px" y="0px"
	 viewBox="0 0 14 14" style="enable-background:new 0 0 14 14;" xml:space="preserve">
<style type="text/css">
	.st0{fill:#235784;}
</style>
<title>home_days@1x</title>
<desc>Created with Sketch.</desc>
<g id="App">
	<g id="Group-15" transform="translate(0.351562, -27.181641)">
		<path id="home_days" class="st0" d="M7.4,33.6v-2.5c0-0.6-0.4-1-0.9-1s-0.9,0.5-0.9,1v2.7c0,0.2,0.1,0.4,0.2,0.6
			c0.1,0.1,0.1,0.2,0.2,0.3l2,1.9c0.4,0.4,1,0.4,1.4,0.1c0.3-0.4,0.3-1-0.1-1.4L7.4,33.6z M6.6,41.2c-3.9,0-7-3.1-7-7s3.1-7,7-7
			s7,3.1,7,7S10.5,41.2,6.6,41.2z"/>
	</g>
</g>
</svg>
