<?xml version="1.0" encoding="utf-8"?>
<!-- Generator: Adobe Illustrator 21.0.0, SVG Export Plug-In . SVG Version: 6.00 Build 0)  -->
<svg version="1.1" id="图层_1" xmlns="http://www.w3.org/2000/svg" xmlns:xlink="http://www.w3.org/1999/xlink" x="0px" y="0px"
	 viewBox="0 0 11.1 11" style="enable-background:new 0 0 11.1 11;" xml:space="preserve">
<style type="text/css">
	.st0{fill:#F7AA00;}
</style>
<title>home_star@3x</title>
<desc>Created with Sketch.</desc>
<g id="App">
	<g id="App_List_H5" transform="translate(-147.000000, -100.000000)">
		<g id="分组" transform="translate(70.000000, 90.000000)">
			<path id="home_star" class="st0" d="M82.3,20l-2.4,1c-0.4,0.1-0.8,0-0.9-0.4c0-0.1-0.1-0.2,0-0.3l0.1-2.8c0-0.2,0-0.3-0.1-0.5
				l-1.7-2.2c-0.2-0.3-0.2-0.7,0.1-1c0.1-0.1,0.1-0.1,0.2-0.1l2.6-0.7c0.2,0,0.3-0.2,0.4-0.3l1.4-2.3c0.2-0.3,0.6-0.4,1-0.2
				c0.1,0.1,0.2,0.1,0.2,0.2l1.4,2.3c0.1,0.1,0.2,0.3,0.4,0.3l2.6,0.7c0.4,0.1,0.6,0.5,0.5,0.9c0,0.1-0.1,0.2-0.1,0.2L86.2,17
				c-0.1,0.1-0.1,0.3-0.1,0.5l0.1,2.8c0,0.4-0.3,0.7-0.7,0.7c-0.1,0-0.2,0-0.3,0l-2.4-1C82.6,20,82.4,20,82.3,20z"/>
		</g>
	</g>
</g>
</svg>
